<?xml version="1.0" encoding="iso-8859-1"?>
<!-- Generator: Adobe Illustrator 19.0.0, SVG Export Plug-In . SVG Version: 6.00 Build 0)  -->
<svg version="1.1" id="Capa_1" xmlns="http://www.w3.org/2000/svg" xmlns:xlink="http://www.w3.org/1999/xlink" x="0px" y="0px"
	 viewBox="0 0 368 368" style="enable-background:new 0 0 368 368;" height="45" width="45" xml:space="preserve">

	 <style type="text/css">
	#Capa_1{fill:#FFFFFF;}

</style>
<g>
	<g>
		<path d="M360,144h-24v-32h24c4.424,0,8-3.584,8-8s-3.576-8-8-8h-24V40c0-22.056-17.944-40-40-40H72C49.944,0,32,17.944,32,40v56H8
			c-4.424,0-8,3.584-8,8s3.576,8,8,8h24v32H8c-4.424,0-8,3.584-8,8s3.576,8,8,8h24v144c0,8.824,7.176,16,16,16v24
			c0,13.232,10.768,24,24,24h32c13.232,0,24-10.768,24-24v-24h112v24c0,13.232,10.768,24,24,24h32c13.232,0,24-10.768,24-24v-24
			c8.824,0,16-7.176,16-16V160h24c4.424,0,8-3.584,8-8S364.424,144,360,144z M48,40c0-13.232,10.768-24,24-24h224
			c13.232,0,24,10.768,24,24v8H48V40z M48,64h128v104c0,4.416,3.576,8,8,8s8-3.584,8-8V64h128v39.992V104v0.008v47.976
			c0,0.008,0,0.008,0,0.016s0,0.008,0,0.016V176H184H48V64z M280.2,192c-19.496,14.6-32.2,37.816-32.2,64H120
			c0-26.184-12.704-49.4-32.208-64H280.2z M48,192.552c31.52,3.96,56,30.872,56,63.448H48V192.552z M112,344c0,4.408-3.584,8-8,8H72
			c-4.416,0-8-3.592-8-8v-24h48V344z M304,344c0,4.408-3.584,8-8,8h-32c-4.416,0-8-3.592-8-8v-24h48V344z M320.008,304H48v-32
			h272.008V304z M320.008,256H264c0-32.576,24.48-59.488,56.008-63.448V256z"/>
	</g>
</g>
<g>
</g>
<g>
</g>
<g>
</g>
<g>
</g>
<g>
</g>
<g>
</g>
<g>
</g>
<g>
</g>
<g>
</g>
<g>
</g>
<g>
</g>
<g>
</g>
<g>
</g>
<g>
</g>
<g>
</g>
</svg>
