<?xml version="1.0" encoding="utf-8"?>
<!-- Generator: Adobe Illustrator 23.0.5, SVG Export Plug-In . SVG Version: 6.00 Build 0)  -->
<svg version="1.1" id="Capa_1" xmlns="http://www.w3.org/2000/svg" xmlns:xlink="http://www.w3.org/1999/xlink" x="0px" y="0px"
	 viewBox="0 0 477.5 477.5" style="enable-background:new 0 0 477.5 477.5;" xml:space="preserve">
<style type="text/css">
	.st0{fill:#00BCD4;}
</style>
<g>
	<g>
		<path class="st0" d="M438.5,58.6c-24.7-26.5-59.3-41.7-95.6-41.7c-36.3,0-70.9,15.1-95.7,41.7l-8.4,8.9l-8.4-8.9
			C181.3,5.8,98.7,2.7,45.8,51.8c-2.3,2.2-4.6,4.4-6.8,6.8c-52.1,56.2-52.1,143,0,199.1l187.4,197.6c6.5,6.8,17.3,7.1,24.1,0.7
			c0.2-0.2,0.4-0.4,0.7-0.7l187.3-197.6C490.6,201.6,490.6,114.8,438.5,58.6z M413.8,234.2L413.8,234.2l-175,184.5l-175-184.5
			C24,191.3,24,125,63.8,82.1c36.1-39.2,97.2-41.6,136.3-5.5c1.9,1.8,3.7,3.6,5.5,5.5l20.8,21.9c6.9,6.8,17.9,6.8,24.8,0L272,82.1
			c36.1-39.2,97.2-41.6,136.3-5.5c1.9,1.8,3.7,3.6,5.5,5.5C453.9,125.1,454.2,191.5,413.8,234.2z"/>
	</g>
</g>
</svg>
