<svg id="light" enable-background="new 0 0 24 24" height="45" viewBox="0 0 24 24" width="45" xmlns="http://www.w3.org/2000/svg"><path d="m16.5 24h-9c-.276 0-.5-.224-.5-.5v-12c0-.276.224-.5.5-.5h9c.276 0 .5.224.5.5v12c0 .276-.224.5-.5.5zm-8.5-1h8v-11h-8z"/><path d="m23.5 24h-7c-.276 0-.5-.224-.5-.5v-4c0-.276.224-.5.5-.5h7c.276 0 .5.224.5.5v4c0 .276-.224.5-.5.5zm-6.5-1h6v-3h-6z"/><path d="m7.5 24h-7c-.276 0-.5-.224-.5-.5v-6c0-.276.224-.5.5-.5h7c.276 0 .5.224.5.5v6c0 .276-.224.5-.5.5zm-6.5-1h6v-5h-6z"/><path d="m12 20c-.276 0-.5-.224-.5-.5v-3.5c-.276 0-.5-.224-.5-.5s.224-.5.5-.5h.5c.276 0 .5.224.5.5v4c0 .276-.224.5-.5.5z"/><path d="m14.472 9c-.098 0-.196-.029-.281-.087l-2.191-1.491-2.191 1.491c-.172.117-.398.116-.568-.004-.17-.118-.249-.331-.198-.532l.682-2.69-2.05-1.751c-.155-.132-.214-.346-.149-.54.065-.193.241-.327.445-.339l2.612-.148.947-2.58c.145-.395.794-.395.938 0l.947 2.58 2.612.148c.204.012.38.146.445.339.065.194.006.408-.149.54l-2.049 1.751.682 2.69c.051.201-.028.414-.198.532-.085.061-.185.091-.286.091zm-2.472-2.683c.098 0 .196.029.281.087l1.383.94-.435-1.714c-.046-.185.016-.38.16-.503l1.339-1.144-1.697-.097c-.199-.011-.373-.14-.441-.327l-.59-1.607-.59 1.608c-.068.188-.242.316-.441.327l-1.698.097 1.339 1.144c.145.123.207.318.16.503l-.435 1.714 1.383-.94c.086-.058.184-.088.282-.088z"/>


<style type="text/css">
	#light{fill:#FFFFFF;}

</style>
</svg>